<?xml version="1.0" encoding="utf-8"?>
<!-- Generator: Adobe Illustrator 25.2.0, SVG Export Plug-In . SVG Version: 6.00 Build 0)  -->
<svg version="1.1" id="Layer_1" xmlns="http://www.w3.org/2000/svg" xmlns:xlink="http://www.w3.org/1999/xlink" x="0px" y="0px"
	 width="273.2px" height="111.3px" viewBox="0 0 273.2 111.3" style="enable-background:new 0 0 273.2 111.3;" xml:space="preserve"
	>
<style type="text/css">
	.st0{fill:#FDC608;}
	.st1{fill:#FFFFFF;}
	.st2{clip-path:url(#SVGID_2_);}
	.st3{fill:#9EA9D5;}
	.st4{clip-path:url(#SVGID_4_);}
	.st5{fill:#0E4096;}
	.st6{clip-path:url(#SVGID_6_);}
	.st7{fill:#FDCA00;}
</style>
<g id="Layer_2_1_">
	<g id="Layer_1-2">
		<polygon class="st0" points="44.9,75.2 44.9,111.3 272.2,111.3 272.2,75.2 		"/>
		<path class="st1" d="M52.2,99.5V87.4H50v12.1H52.2z M57.2,99.7c1.1,0.1,2.2-0.3,3.1-0.9c0.7-0.6,1.2-1.5,1.2-2.4
			c0-0.5-0.1-1-0.3-1.5c-0.2-0.4-0.5-0.8-0.8-1.2c-0.5-0.4-1.1-0.8-1.7-1.1c-1.5-0.7-2.3-1.5-2.3-2.2c0-0.4,0.1-0.8,0.4-1
			c0.3-0.3,0.7-0.4,1.2-0.4c0.9,0,1.7,0.3,2.4,0.8l0.7-1.8c-0.9-0.6-2-0.9-3.1-0.8c-1,0-1.9,0.3-2.6,0.9c-0.7,0.6-1,1.4-1,2.3
			c0,0.5,0.1,0.9,0.3,1.4c0.2,0.4,0.4,0.8,0.7,1.1c0.6,0.5,1.2,0.8,1.9,1.1c0.7,0.3,1.3,0.7,1.8,1.3c0.3,0.3,0.4,0.7,0.4,1.2
			c0,0.9-0.6,1.3-1.9,1.3c-0.9,0-1.8-0.3-2.5-0.9l-0.8,1.9C55,99.4,56.1,99.7,57.2,99.7z M71,89.3v-1.9h-7.7v12.1h7.6v-1.9h-5.5V94
			h4v-1.8h-4v-2.8L71,89.3z M76.9,95.5v-1.9h-4.4v1.9H76.9z M86.8,89.3v-1.9h-7.7v12.1h7.6v-1.9h-5.5V94h4v-1.8h-4v-2.8L86.8,89.3z
			 M97.5,87.4h-1.1l-2.6,8.1l-2.6-8.1h-1.1l-2.4,12.1h2.1L91,93l2.4,6.7h0.8l2.4-6.7l1.3,6.5h2.1L97.5,87.4L97.5,87.4z M110.4,99.5
			V87.4h-2.1v4.7h-4.8v-4.7h-2.1v12.1h2.1V94h4.8v5.4L110.4,99.5z"/>
		<path class="st0" d="M14.7,92.6c0,0.6-0.5,1.1-1.1,1.1h-7c-0.6-0.1-1-0.5-1.1-1.1V83c0.3-0.3,0.7-0.5,1.1-0.6h7
			c0.4,0.1,0.8,0.3,1.1,0.6V92.6L14.7,92.6z"/>
		<path class="st0" d="M13.1,83.5c0,0.6-0.5,1.1-1.1,1.1H8.2c-0.6-0.1-1.1-0.5-1.1-1.1v-7.4c0-0.6,0.5-1.1,1.1-1.1H12
			c0.6,0.1,1.1,0.5,1.1,1.1V83.5z"/>
		<path class="st0" d="M8.3,95.4c0,0.3,0.2,0.5,0.5,0.6l0,0h2.6c0.3,0,0.5-0.2,0.5-0.5l0,0v-3.9L11.4,91H8.8l-0.5,0.6
			C8.3,91.4,8.3,95.4,8.3,95.4z"/>
		<path class="st0" d="M32.5,106.2h-2.2c-0.5-2.3-4.3-4.5-8.6-4.5c-4.9,0-8.6,2.3-9.2,4.5H0.6c-0.5,0-0.5,0.6-0.5,1.1v3.4
			c0,0.6,0,0.6,0.5,0.6h31.9c0.3,0,0.5-0.2,0.5-0.5l0,0v-3.4C32.9,106.9,32.8,106.5,32.5,106.2"/>
		<path class="st0" d="M26,94.9L20,87c-0.6-0.6-1.3-1-2.2-1.1h-1.6v12c0,0.3-0.2,0.6-0.5,0.6l0,0H3.3c-0.5,0-0.5,0.6-0.5,1.1v0.6
			c0,0.6,0,1.1,0.5,1.1h12.9c1.7-0.7,3.5-1.1,5.4-1.1c1.8,0.1,3.7,0.5,5.4,1.1v-3.4C27,96.7,26.7,95.7,26,94.9"/>
		<g>
			<g>
				<defs>
					<rect id="SVGID_1_" x="0.1" width="273.1" height="51.7"/>
				</defs>
				<clipPath id="SVGID_2_">
					<use xlink:href="#SVGID_1_"  style="overflow:visible;"/>
				</clipPath>
				<g class="st2">
					<path class="st3" d="M7.9,1.1H0.1v24.1c2.5-0.5,5.2-0.9,7.8-1.4V1.1z"/>
				</g>
			</g>
		</g>
		<path class="st3" d="M55.8,16h6.4V9.4h-6.4v-7h-7.7v7h-3.3V16h3.3v3c2.6-0.2,5.1-0.4,7.7-0.5V16z"/>
		<path class="st3" d="M80.1,15.1c1.7,0,3.4,0.8,4.4,2.1c2.6-0.1,5.2-0.1,7.8-0.1c-1.8-4.7-5.7-8.2-12.1-8.2
			c-5.7-0.1-10.7,3.5-12.6,8.9c2.6-0.1,5.3-0.2,8-0.3C76.5,16,78.2,15.1,80.1,15.1"/>
		<path class="st3" d="M112.9,17.2c0.7-0.2,1.5-0.2,2.2-0.2h0.4V8.9c-4.6-0.2-7.1,2.2-8.7,6V9.4h-7.7v7.7h0.4
			C104,17.1,108.5,17.1,112.9,17.2"/>
		<path class="st3" d="M136.4,17h0.4V8.9c-4.6-0.2-7.1,2.2-8.7,6V9.4h-7.7v8c4,0.1,8,0.3,11.9,0.5C133.6,17.2,135,17,136.4,17"/>
		<path class="st3" d="M153.5,15.1c2.9,0,4.8,1.8,5.5,4.6c2.5,0.2,5,0.5,7.5,0.7c-1-6.4-5.2-11.5-13-11.5c-5.9,0-11.1,3.8-12.7,9.4
			c2.5,0.2,5,0.3,7.4,0.5C149,16.6,151.2,15.1,153.5,15.1"/>
		<path class="st3" d="M178.1,21.7L178.1,21.7c0-3.6,2.7-6.4,6.2-6.4c0.1,0,0.3,0,0.4,0c3.8,0,6.7,2.6,6.7,6.3v0.1
			c0,0.7-0.1,1.4-0.3,2c2.7,0.4,5.4,0.9,7.9,1.4V9.4h-7.7V13c-2.1-2.6-5.4-4.1-8.8-4.1c-6.1,0-11.7,4.3-12.1,12
			C173,21.2,175.5,21.5,178.1,21.7C178.1,21.8,178.1,21.7,178.1,21.7"/>
		<g>
			<g>
				<defs>
					<rect id="SVGID_3_" x="0.1" width="273.1" height="51.7"/>
				</defs>
				<clipPath id="SVGID_4_">
					<use xlink:href="#SVGID_3_"  style="overflow:visible;"/>
				</clipPath>
				<g class="st4">
					<path class="st3" d="M25.7,16.1c0.7-0.3,1.4-0.4,2.2-0.5c0.8,0,1.5,0.2,2.2,0.5c1.8,0.7,3,2.4,3.1,4.3c2.5-0.3,4.9-0.5,7.5-0.7
						c-0.8-4-3.3-7.3-6.9-9.2C32,9.5,30,9,28,8.9c-2,0-4.1,0.6-5.9,1.6c-4.5,2.4-7.3,7.1-7.3,12.2c2.5-0.4,5.1-0.7,7.7-1.1
						C22.6,19,23.4,17.2,25.7,16.1"/>
					<path class="st5" d="M7.9,36.7v-13c-2.7,0.4-5.3,0.9-7.8,1.4v11.5h7.8V36.7z"/>
				</g>
			</g>
		</g>
		<path class="st5" d="M56,37.1c2.1,0.1,4.3-0.5,6.1-1.6v-6.2c-1.2,0.6-2.5,1-3.8,1c-1.7,0-2.5-0.9-2.5-2.6v-9.2
			c-2.6,0.2-5.2,0.4-7.7,0.5v9.9C48.1,35.2,51.3,37.1,56,37.1"/>
		<path class="st5" d="M66.6,23.2c0,8.3,6.1,14.1,14.2,14.1c4.3,0.2,8.4-1.7,11.1-5.1l-4.4-3.9c-1.7,1.8-4.1,2.8-6.6,2.8
			c-3.3,0.2-6.2-2.1-6.7-5.3h19c0.1-0.7,0.1-1.4,0.1-2c0-2.2-0.4-4.5-1.1-6.6c-2.6,0-5.2,0.1-7.8,0.1c0.8,1.1,1.2,2.3,1.4,3.7H74.2
			c0.2-1.2,0.6-2.4,1.3-3.4c-2.7,0.1-5.3,0.2-8,0.3C66.9,19.5,66.6,21.3,66.6,23.2L66.6,23.2L66.6,23.2z"/>
		<path class="st5" d="M106.8,36.7V26.6c0-5.5,2.3-8.6,6.1-9.4c-4.4-0.1-8.9-0.1-13.4-0.1h-0.4v19.6H106.8z"/>
		<path class="st5" d="M128.1,36.7V26.6c0-4.5,1.5-7.4,4.2-8.8c-3.9-0.2-7.9-0.3-11.9-0.5v19.3h7.7V36.7z"/>
		<path class="st5" d="M140.1,23.2c0,8.3,6.1,14.1,14.2,14.1c4.3,0.2,8.4-1.7,11.1-5.1l-4.4-3.9c-1.7,1.8-4.1,2.8-6.6,2.8
			c-3.3,0.2-6.2-2.1-6.7-5.3h19c0.1-0.7,0.1-1.4,0.1-2c0-1.1-0.1-2.2-0.3-3.3c-2.5-0.3-5-0.5-7.5-0.7c0.1,0.4,0.2,0.8,0.2,1.2h-11.6
			c0.1-0.7,0.3-1.4,0.6-2.1c-2.5-0.2-4.9-0.3-7.4-0.5c-0.5,1.5-0.8,3.2-0.8,4.8L140.1,23.2L140.1,23.2z"/>
		<path class="st5" d="M170.3,21.7c0,8.1,5.8,12.7,12.1,12.7c4.1,0,6.6-1.7,8.9-4.4v1.3c0,4.9-2.5,7.4-7.8,7.4
			c-3.2,0-6.4-0.8-9.2-2.5l-2.6,5.8c3.7,1.9,7.9,2.9,12.1,2.8c5.3,0,9.2-1.1,11.8-3.7c2.3-2.3,3.5-5.9,3.5-10.7V25
			c-2.6-0.5-5.2-1-7.9-1.4c-0.9,2.7-3.5,4.4-6.4,4.3c-3.7,0-6.6-2.5-6.6-6.2c-2.5-0.3-5.1-0.6-7.7-0.9c0,0.2,0,0.5,0,0.8L170.3,21.7
			L170.3,21.7z"/>
		<path class="st5" d="M33.3,21.7v15H41V23.1c0-1.2-0.1-2.3-0.4-3.5c-2.5,0.2-5,0.5-7.5,0.7C33.3,20.8,33.3,21.2,33.3,21.7"/>
		<g>
			<g>
				<defs>
					<rect id="SVGID_5_" x="0.1" width="273.1" height="51.7"/>
				</defs>
				<clipPath id="SVGID_6_">
					<use xlink:href="#SVGID_5_"  style="overflow:visible;"/>
				</clipPath>
				<g class="st6">
					<path class="st5" d="M14.8,23.2v13.5h7.7v-15c0,0,0,0,0-0.1c-2.6,0.3-5.2,0.7-7.7,1.1c0,0.1,0,0.3,0,0.4V23.2L14.8,23.2z"/>
					<path class="st5" d="M221.7,51.7v-0.5h-2.5v-1.4h2.3v-0.5h-2.3v-1.2h2.4v-0.5h-2.9v4.1C218.7,51.7,221.7,51.7,221.7,51.7z
						 M224.5,51.7l1.6-4.1h-0.6l-1.1,3c-0.1,0.2-0.2,0.4-0.2,0.7c-0.1-0.2-0.1-0.4-0.2-0.7l-1.1-3h-0.6l1.6,4.1H224.5z M227.4,51.7
						v-1.8h0.6c0.1,0,0.2,0,0.3,0s0.2,0.1,0.2,0.1c0.1,0.1,0.2,0.2,0.3,0.3s0.2,0.3,0.4,0.6l0.5,0.8h0.7l-0.7-1.1
						c-0.1-0.2-0.3-0.4-0.4-0.5c-0.1-0.1-0.2-0.1-0.3-0.2c0.3,0,0.6-0.2,0.9-0.4c0.2-0.2,0.3-0.5,0.3-0.7s-0.1-0.4-0.2-0.6
						c-0.1-0.2-0.3-0.3-0.5-0.4c-0.3-0.1-0.5-0.1-0.8-0.1h-1.8v4.1L227.4,51.7z M227.4,48h1.3c0.2,0,0.5,0,0.7,0.2
						c0.1,0.1,0.2,0.3,0.2,0.5c0,0.1,0,0.3-0.1,0.4c-0.1,0.1-0.2,0.2-0.3,0.2c-0.2,0.1-0.4,0.1-0.6,0.1h-1.2L227.4,48L227.4,48z
						 M231.4,50.7c0.1,0.3,0.4,0.6,0.7,0.8s0.7,0.3,1,0.3s0.7-0.1,1-0.3s0.6-0.4,0.7-0.7c0.2-0.3,0.3-0.7,0.2-1.1
						c0-0.4-0.1-0.8-0.2-1.1c-0.2-0.3-0.4-0.6-0.7-0.8s-0.7-0.3-1-0.3c-0.5,0-1,0.2-1.4,0.6c-0.4,0.4-0.6,1-0.5,1.6
						C231.1,50,231.2,50.4,231.4,50.7 M232.1,48.4c0.3-0.3,0.6-0.4,1-0.4c0.3,0,0.5,0.1,0.7,0.2c0.2,0.1,0.4,0.3,0.5,0.6
						s0.2,0.6,0.2,0.9c0,0.4-0.1,0.9-0.4,1.2c-0.5,0.6-1.4,0.6-2,0l0,0c-0.3-0.3-0.4-0.7-0.4-1.2C231.7,49.2,231.8,48.7,232.1,48.4
						 M236.6,51.6V50h1c0.4,0,0.9-0.1,1.2-0.4c0.3-0.4,0.4-1,0.2-1.4c-0.1-0.2-0.2-0.3-0.3-0.4c-0.2-0.1-0.3-0.2-0.5-0.2
						s-0.4,0-0.6,0h-1.5v4.1L236.6,51.6z M236.6,48h1c0.2,0,0.3,0,0.5,0c0.1,0,0.3,0.1,0.3,0.2c0.1,0.1,0.1,0.3,0.1,0.4
						c0,0.2-0.1,0.4-0.2,0.5c-0.2,0.2-0.5,0.2-0.7,0.2h-1.1L236.6,48L236.6,48z M240.2,51.1c0.1,0.2,0.3,0.4,0.6,0.5
						s0.6,0.2,0.9,0.2c0.3,0,0.5-0.1,0.8-0.2c0.2-0.1,0.4-0.2,0.5-0.4s0.2-0.4,0.2-0.6c0-0.2-0.1-0.4-0.2-0.6
						c-0.1-0.2-0.3-0.3-0.5-0.4c-0.3-0.1-0.6-0.2-0.9-0.3c-0.3,0-0.6-0.1-0.8-0.3c-0.1-0.1-0.2-0.2-0.2-0.4s0.1-0.3,0.2-0.4
						c0.2-0.1,0.5-0.2,0.7-0.2c0.3,0,0.5,0.1,0.7,0.2c0.2,0.1,0.3,0.4,0.3,0.6h0.5c0-0.2-0.1-0.5-0.2-0.6c-0.1-0.2-0.3-0.3-0.5-0.4
						c-0.3-0.1-0.5-0.2-0.8-0.1c-0.3,0-0.5,0-0.7,0.1s-0.4,0.2-0.5,0.4s-0.2,0.4-0.2,0.6c0,0.2,0,0.4,0.1,0.5
						c0.1,0.2,0.3,0.3,0.4,0.4c0.3,0.1,0.5,0.2,0.8,0.3c0.2,0.1,0.5,0.1,0.7,0.2c0.1,0,0.3,0.1,0.4,0.2c0.1,0.1,0.1,0.2,0.1,0.3
						s0,0.2-0.1,0.3s-0.2,0.2-0.4,0.3s-0.4,0.1-0.5,0.1c-0.2,0-0.4,0-0.6-0.1c-0.2-0.1-0.3-0.2-0.4-0.3c-0.1-0.2-0.2-0.3-0.2-0.5
						h-0.5C240,50.6,240.1,50.8,240.2,51.1 M244.8,51.6v-1.4l0.7-0.7l1.5,2.1h0.7l-1.8-2.4l1.7-1.7h-0.7l-2,2v-2h-0.5v4.1
						L244.8,51.6z M248.5,51.6l0.4-1.2h1.7l0.5,1.2h0.6l-1.7-4.1h-0.6l-1.5,4.1H248.5z M249.6,48.8c0.1-0.3,0.2-0.5,0.2-0.8
						c0.1,0.2,0.2,0.5,0.3,0.8l0.4,1.1h-1.4L249.6,48.8L249.6,48.8z M257.5,49.9c0,0.4,0,0.7-0.3,1c-0.2,0.2-0.5,0.3-0.8,0.3
						c-0.2,0-0.4,0-0.6-0.1c-0.2-0.1-0.3-0.2-0.3-0.4c-0.1-0.3-0.1-0.5-0.1-0.8v-2.3h-0.5V50c0,0.3,0,0.7,0.2,1
						c0.1,0.2,0.3,0.4,0.5,0.6c0.3,0.1,0.6,0.2,0.9,0.2s0.7-0.1,1-0.2c0.2-0.1,0.4-0.3,0.5-0.6s0.1-0.6,0.1-1v-2.4h-0.5L257.5,49.9
						L257.5,49.9z M259.7,51.6v-3.2l2.1,3.2h0.6v-4.1h-0.5v3.2l-2.1-3.2h-0.6v4.1H259.7z M264.3,47.6h-0.5v4.1h0.5V47.6L264.3,47.6z
						 M265.5,51.4c0.2,0.2,0.5,0.3,0.8,0.3c0.2,0,0.4,0,0.6-0.1s0.3-0.2,0.4-0.4c0.1-0.3,0.1-0.5,0.1-0.8v-2.8H267v2.8
						c0,0.2,0,0.3-0.1,0.5c0,0.1-0.1,0.2-0.2,0.3s-0.2,0.1-0.4,0.1c-0.2,0-0.3-0.1-0.4-0.2c-0.1-0.2-0.2-0.4-0.2-0.6l-0.5,0.1
						C265.2,50.8,265.3,51.2,265.5,51.4 M268.8,51.7l0.4-1.2h1.7l0.5,1.2h0.6l-1.7-4.1h-0.6l-1.6,4.1H268.8z M269.9,48.8
						c0.1-0.3,0.2-0.5,0.2-0.8c0.1,0.2,0.2,0.5,0.3,0.8l0.4,1.1h-1.4L269.9,48.8L269.9,48.8z"/>
				</g>
			</g>
		</g>
		<path class="st5" d="M221.3,43.4c0,0.4,0,0.7-0.3,1c-0.2,0.2-0.5,0.3-0.8,0.3c-0.2,0-0.4,0-0.6-0.1c-0.2-0.1-0.3-0.2-0.3-0.4
			c-0.1-0.3-0.1-0.5-0.1-0.8V41h-0.5v2.4c0,0.3,0,0.7,0.2,1c0.1,0.2,0.3,0.4,0.5,0.6c0.3,0.1,0.6,0.2,0.9,0.2c0.3,0,0.7-0.1,1-0.2
			c0.2-0.1,0.4-0.3,0.5-0.6s0.2-0.6,0.1-1V41h-0.5C221.3,41.1,221.3,43.4,221.3,43.4z M223.4,45.1v-3.2l2.1,3.2h0.6V41h-0.5v3.2
			l-2.1-3.2h-0.6v4.1H223.4z M227.7,41.1h-0.5v4.1h0.5V41.1z M228.9,44.2c0.1,0.3,0.4,0.6,0.7,0.8s0.7,0.3,1,0.3s0.7-0.1,1-0.3
			s0.6-0.4,0.7-0.7c0.2-0.3,0.3-0.7,0.2-1.1c0-0.4-0.1-0.8-0.2-1.1c-0.2-0.3-0.4-0.6-0.7-0.8s-0.7-0.3-1-0.3c-0.5,0-1,0.2-1.4,0.6
			c-0.4,0.4-0.6,1-0.5,1.6C228.6,43.5,228.7,43.9,228.9,44.2 M229.6,41.9c0.3-0.3,0.6-0.4,1-0.4c0.3,0,0.5,0.1,0.7,0.2
			c0.2,0.1,0.4,0.3,0.5,0.6s0.2,0.6,0.2,0.9c0,0.4-0.1,0.9-0.4,1.2c-0.5,0.6-1.4,0.6-2,0l0,0c-0.3-0.3-0.4-0.7-0.4-1.2
			C229.2,42.7,229.3,42.2,229.6,41.9 M233.9,45.1v-3.2l2.1,3.2h0.6V41H236v3.2l-2.1-3.2h-0.6v4.1H233.9z M240.6,45.1v-0.5h-2.5v-1.4
			h2.3v-0.5h-2.3v-1.2h2.4V41h-2.9v4.1C237.6,45.1,240.6,45.1,240.6,45.1z M247,45.1v-0.5h-2.5v-1.4h2.3v-0.5h-2.3v-1.2h2.4V41H244
			v4.1C244,45.1,247,45.1,247,45.1z M250.6,43.4c0,0.4,0,0.7-0.3,1c-0.2,0.2-0.5,0.3-0.8,0.3c-0.2,0-0.4,0-0.6-0.1
			c-0.2-0.1-0.3-0.2-0.3-0.4c-0.1-0.3-0.1-0.5-0.1-0.8V41H248v2.4c0,0.3,0,0.7,0.2,1c0.1,0.2,0.3,0.4,0.5,0.6
			c0.3,0.1,0.6,0.2,0.9,0.2c0.3,0,0.7-0.1,1-0.2c0.2-0.1,0.4-0.3,0.5-0.6s0.2-0.6,0.1-1V41h-0.5L250.6,43.4L250.6,43.4z M252.7,45.1
			v-1.8h0.6c0.1,0,0.2,0,0.3,0s0.2,0.1,0.2,0.1c0.1,0.1,0.2,0.2,0.3,0.3s0.2,0.3,0.4,0.6l0.5,0.8h0.7L255,44
			c-0.1-0.2-0.3-0.4-0.4-0.5c-0.1-0.1-0.2-0.1-0.3-0.2c0.3,0,0.6-0.2,0.9-0.4c0.2-0.2,0.3-0.5,0.3-0.7s-0.1-0.4-0.2-0.6
			c-0.1-0.2-0.3-0.3-0.5-0.4c-0.3-0.1-0.5-0.1-0.8-0.1h-1.8v4.1L252.7,45.1z M252.7,41.5h1.3c0.2,0,0.5,0,0.7,0.2
			c0.1,0.1,0.2,0.3,0.2,0.5c0,0.1,0,0.3-0.1,0.4c-0.1,0.1-0.2,0.2-0.3,0.2c-0.2,0.1-0.4,0.1-0.6,0.1h-1.2L252.7,41.5L252.7,41.5z
			 M256.4,44.2c0.2,0.3,0.4,0.6,0.7,0.8c0.3,0.2,0.7,0.3,1,0.3s0.7-0.1,1-0.3s0.6-0.4,0.7-0.7c0.2-0.3,0.3-0.7,0.2-1.1
			c0-0.4-0.1-0.8-0.2-1.1c-0.2-0.3-0.4-0.6-0.7-0.8c-0.3-0.2-0.7-0.3-1-0.3c-0.5,0-1,0.2-1.4,0.6c-0.4,0.4-0.6,1-0.5,1.6
			C256.2,43.5,256.2,43.9,256.4,44.2 M257.1,41.9c0.3-0.3,0.6-0.4,1-0.4c0.3,0,0.5,0.1,0.7,0.2c0.2,0.1,0.4,0.3,0.5,0.6
			s0.2,0.6,0.2,0.9c0,0.4-0.1,0.9-0.4,1.2c-0.5,0.6-1.4,0.6-2,0l0,0c-0.3-0.3-0.4-0.7-0.4-1.2C256.7,42.7,256.8,42.2,257.1,41.9
			 M261.4,45.1v-1.7h1c0.4,0,0.9-0.1,1.2-0.4c0.2-0.2,0.3-0.6,0.3-0.9c0-0.2,0-0.4-0.1-0.6c-0.1-0.2-0.2-0.3-0.3-0.4
			c-0.2-0.1-0.3-0.2-0.5-0.2s-0.4,0-0.6,0h-1.5V45L261.4,45.1z M261.4,41.5h1c0.2,0,0.3,0,0.5,0c0.1,0,0.3,0.1,0.3,0.2
			c0.1,0.1,0.1,0.3,0.1,0.4c0,0.2-0.1,0.4-0.2,0.5c-0.2,0.2-0.5,0.2-0.7,0.2h-1.1L261.4,41.5L261.4,41.5z M267.8,45.1v-0.5h-2.5
			v-1.4h2.3v-0.5h-2.3v-1.2h2.4V41h-2.9v4.1C264.8,45.1,267.8,45.1,267.8,45.1z M268.8,45.1l0.4-1.2h1.7l0.5,1.2h0.6l-1.7-4.1h-0.6
			l-1.6,4.1H268.8z M269.9,42.3c0.1-0.3,0.2-0.5,0.2-0.8c0.1,0.2,0.2,0.5,0.3,0.8l0.4,1.1h-1.4L269.9,42.3L269.9,42.3z"/>
		<polygon class="st1" points="217.6,0 273.2,0 273.2,37.7 217.6,37.7 		"/>
		<polygon class="st5" points="218.7,1 272.1,1 272.1,36.6 218.7,36.6 		"/>
		<polyline class="st7" points="244.3,8.8 245.4,8 246.5,8.8 246.1,7.5 247.2,6.6 245.8,6.6 245.4,5.3 244.9,6.6 243.5,6.6 
			244.7,7.5 244.3,8.8 		"/>
		<polyline class="st7" points="238.4,10.4 239.5,9.5 240.7,10.4 240.2,9 241.4,8.2 240,8.2 239.5,6.9 239.1,8.2 237.7,8.2 238.9,9 
			238.4,10.4 		"/>
		<polyline class="st7" points="235.3,11.1 234.9,12.5 233.4,12.5 234.6,13.3 234.2,14.6 235.3,13.8 236.4,14.6 236,13.3 
			237.1,12.5 235.7,12.5 235.3,11.1 		"/>
		<polyline class="st7" points="233.7,19.6 234.8,20.5 234.4,19.1 235.6,18.3 234.2,18.3 233.7,17 233.3,18.3 231.9,18.3 233,19.1 
			232.6,20.5 233.7,19.6 		"/>
		<polyline class="st7" points="235.7,24.1 235.3,22.8 234.9,24.1 233.4,24.1 234.6,25 234.2,26.3 235.3,25.5 236.4,26.3 236,25 
			237.1,24.1 235.7,24.1 		"/>
		<polyline class="st7" points="240,28.4 239.6,27.1 239.1,28.4 237.7,28.4 238.9,29.2 238.4,30.6 239.6,29.7 240.7,30.6 
			240.3,29.2 241.4,28.4 240,28.4 		"/>
		<polyline class="st7" points="245.8,30 245.4,28.6 245,30 243.5,30 244.7,30.8 244.3,32.1 245.4,31.3 246.5,32.1 246.1,30.8 
			247.2,30 245.8,30 		"/>
		<polyline class="st7" points="251.6,28.4 251.2,27.1 250.8,28.4 249.4,28.4 250.5,29.2 250.1,30.6 251.2,29.7 252.3,30.6 
			251.9,29.2 253,28.4 251.6,28.4 		"/>
		<polyline class="st7" points="255.9,24.1 255.5,22.8 255,24.1 253.6,24.1 254.8,25 254.4,26.3 255.5,25.5 256.6,26.3 256.2,25 
			257.3,24.1 255.9,24.1 		"/>
		<polyline class="st7" points="258.9,18.3 257.5,18.3 257,16.9 256.6,18.3 255.2,18.3 256.3,19.1 255.9,20.4 257,19.6 258.2,20.4 
			257.7,19.1 258.9,18.3 		"/>
		<polyline class="st7" points="254.4,14.6 255.5,13.8 256.6,14.6 256.2,13.3 257.3,12.5 255.9,12.5 255.5,11.1 255,12.5 
			253.6,12.5 254.8,13.3 254.4,14.6 		"/>
		<polyline class="st7" points="251.2,6.9 250.8,8.2 249.4,8.2 250.5,9 250.1,10.4 251.2,9.5 252.3,10.4 251.9,9 253.1,8.2 
			251.7,8.2 251.2,6.9 		"/>
		<path class="st5" d="M0.1,55.8v14.8h2.5V55.8H0.1z M5.3,55.8V58H10v12.6h2.5V58.1h4.7v-2.2H5.3V55.8z M29.4,70.7h2.7l-6.5-14.8H23
			l-6.5,14.8h2.6l1.4-3.3H28C28,67.3,29.4,70.7,29.4,70.7z M21.5,65.1l2.8-6.6l2.8,6.6H21.5z M34.7,55.8v14.8h8.9v-2.3h-6.4V55.8
			H34.7z M46.6,55.8v14.8h2.5V55.8H46.6z M64.5,70.7h2.7l-6.5-14.8h-2.6l-6.5,14.8h2.6l1.4-3.3h7.5L64.5,70.7L64.5,70.7z M56.6,65.1
			l2.8-6.6l2.8,6.6H56.6z M67.8,63.8v1.5h7v-1.5L67.8,63.8z M86.3,59.4l1-2.2c-1.5-1-3.3-1.5-5.2-1.5c-3.2,0-5.4,1.6-5.4,4.1
			c0,5.3,8,3.4,8,6.7c0,1.1-1,1.8-2.8,1.8c-1.9-0.1-3.7-0.9-5-2.2l-1.1,2.2c1.7,1.5,3.8,2.3,6.1,2.4c3.3,0,5.6-1.6,5.6-4.3
			c0-5.3-8-3.6-8-6.8c0-1,1-1.5,2.4-1.5C83.5,58.1,85,58.6,86.3,59.4L86.3,59.4z M91,55.8v14.8h8.9v-2.3h-6.4V55.8H91z M109.6,55.8
			c-4.1,0.2-7.3,3.7-7.1,7.8s3.7,7.3,7.8,7.1c4-0.2,7.2-3.5,7.2-7.5c0-4.2-3.4-7.5-7.6-7.5C109.7,55.8,109.6,55.8,109.6,55.8z
			 M109.6,58c2.9-0.1,5.3,2.2,5.4,5.1c0.1,2.9-2.2,5.3-5.1,5.4c-0.1,0-0.2,0-0.3,0c-2.9,0.1-5.3-2.2-5.4-5.1s2.2-5.3,5.1-5.4
			C109.3,58,109.5,58,109.6,58z M118.6,55.8l5.9,14.8h2.6l6-14.8h-2.6l-4.6,12.1l-4.6-12.1L118.6,55.8z M135.7,55.8v14.8h10.8v-2.2
			h-8.3v-4.1h7.2v-2.2h-7.2v-4h8.1v-2.2L135.7,55.8z M150.1,55.8v14.8h2.5V60l7.9,10.6h2.5V55.8h-2.5v10.7l-7.9-10.7H150.1z
			 M167.5,55.8v14.8h2.5V55.8H167.5z M181.5,66.1V55.8h-7.6V58h5.1v8c0,1.5-0.8,2.3-2.1,2.3c-1.2-0.1-2.4-0.7-3.2-1.6l-1.2,1.9
			c1,1.4,2.7,2.1,4.4,2.1C179.7,70.8,181.5,69.1,181.5,66.1L181.5,66.1z M196.2,70.6h2.7l-6.5-14.8h-2.6l-6.5,14.8h2.6l1.4-3.3h7.5
			L196.2,70.6L196.2,70.6z M188.3,65.1l2.8-6.6l2.8,6.6H188.3z"/>
	</g>
</g>
</svg>
